<svg xmlns="http://www.w3.org/2000/svg" xmlns:xlink="http://www.w3.org/1999/xlink" width="37.309" height="50.146" viewBox="0 0 37.309 50.146"><defs><style>.a{fill:#fff;}.b{fill:#ececec;}.c{stroke:#f5f5f5;fill:url(#c);}.d{fill:#bb9600;font-size:8px;font-family:Muli-Bold, Muli;font-weight:700;}.e{filter:url(#a);}</style><filter id="a" x="1" y="22.505" width="20.892" height="27.642" filterUnits="userSpaceOnUse"><feOffset dy="1" input="SourceAlpha"/><feGaussianBlur stdDeviation="1" result="b"/><feFlood flood-opacity="0.161"/><feComposite operator="in" in2="b"/><feComposite in="SourceGraphic"/></filter><linearGradient id="c" x1="0.032" y1="-0.044" x2="1.178" y2="1.08" gradientUnits="objectBoundingBox"><stop offset="0" stop-color="#e4a000"/><stop offset="0.489" stop-color="#fffae8"/><stop offset="1" stop-color="#e5aa08"/></linearGradient></defs><g transform="translate(0.674 0.646)"><g transform="translate(0)"><g class="e" transform="matrix(1, 0, 0, 1, -0.67, -0.65)"><path class="a" d="M97.425,286.189l-6.44,4.074L95.3,271l10.576,2.085L101.5,292.642Z" transform="translate(-86.98 -246.5)"/></g><path class="b" d="M256.527,277.282l10.535-2.268,4.234,18.9-6.44-4.074-4.072,6.452Z" transform="translate(-238.335 -250.795)"/><path class="c" d="M91.732,17.6l-3.508-3.878,1.1-5.112L84.347,7,82.741,2.029,77.582,3.138,73.751,0l-3.83,3.138L64.762,2.029,63.156,7,58.179,8.611l1.1,5.112L55.771,17.6l3.508,3.878-1.1,5.112L63.156,28.2l1.606,4.976,5.112-1.1,3.878,3.508,3.878-3.508,5.112,1.1L84.347,28.2l4.976-1.606-1.1-5.112Z" transform="translate(-55.771 0)"/></g><text class="d" transform="translate(8.501 20.5)"><tspan x="0" y="0">Gold</tspan></text></g></svg>