<svg xmlns="http://www.w3.org/2000/svg" width="19.479" height="19.479" viewBox="0 0 19.479 19.479"><defs><style>.a{fill:#2699fb;}</style></defs><path class="a" d="M8.417,12.93a16.393,16.393,0,0,0,7.131,7.131l2.381-2.381a1.076,1.076,0,0,1,1.1-.26,12.344,12.344,0,0,0,3.863.617,1.085,1.085,0,0,1,1.082,1.082V22.9A1.085,1.085,0,0,1,22.9,23.979,18.4,18.4,0,0,1,4.5,5.582,1.085,1.085,0,0,1,5.582,4.5H9.37a1.085,1.085,0,0,1,1.082,1.082,12.294,12.294,0,0,0,.617,3.863,1.086,1.086,0,0,1-.271,1.1L8.417,12.93Z" transform="translate(-4.5 -4.5)"/></svg>